<svg width="107" height="30" viewBox="0 0 107 30" fill="none" xmlns="http://www.w3.org/2000/svg">
<g clip-path="url(#clip0_170_441)">
<path fill-rule="evenodd" clip-rule="evenodd" d="M5.00318 0.0446777L0.181152 29.9553C31.6006 29.9553 62.6292 29.9522 94.0536 29.9553C100.759 29.956 105.9 29.9553 105.9 20.9231V9.0769C105.9 0.044873 101.422 0.0448669 94.0536 0.0446777C-23.2546 0.0446777 159.232 0.0446777 5.00318 0.0446777Z" fill="black"/>
<path d="M7.79747 4.0686H12.5455L16.1782 26.6022H12.673L12.0357 22.1276V22.1921H8.0524L7.41507 26.6022H4.16473L7.79747 4.0686ZM11.6214 19.134L10.06 7.99588H9.99622L8.46665 19.134H11.6214Z" fill="#FAFAFA"/>
<path d="M16.9226 4.0686H22.1167C23.9225 4.0686 25.2396 4.49782 26.0681 5.35624C26.8966 6.19321 27.3109 7.49156 27.3109 9.25132V10.6355C27.3109 12.9747 26.5462 14.4555 25.0166 15.0779V15.1422C25.8663 15.3999 26.4611 15.9256 26.8011 16.7196C27.1622 17.5137 27.3428 18.5759 27.3428 19.9065V23.866C27.3428 24.5099 27.364 25.0356 27.4065 25.4434C27.449 25.8296 27.5551 26.2159 27.7252 26.6022H24.1561C24.0287 26.2374 23.9437 25.894 23.9012 25.5721C23.8587 25.2501 23.8374 24.6707 23.8374 23.8338V19.7134C23.8374 18.6832 23.6676 17.9643 23.3276 17.5566C23.009 17.1488 22.446 16.945 21.6387 16.945H20.4278V26.6022H16.9226V4.0686ZM21.7024 13.7259C22.4035 13.7259 22.924 13.5434 23.2639 13.1786C23.625 12.8138 23.8056 12.2022 23.8056 11.3437V9.60543C23.8056 8.78993 23.6569 8.19976 23.3595 7.83494C23.0834 7.4701 22.6372 7.28769 22.0211 7.28769H20.4278V13.7259H21.7024Z" fill="#FAFAFA"/>
<path d="M33.7581 26.9241C32.0798 26.9241 30.7945 26.4412 29.9022 25.4755C29.0313 24.5099 28.5957 23.1471 28.5957 21.3872V9.28353C28.5957 7.52376 29.0313 6.16103 29.9022 5.19529C30.7945 4.22957 32.0798 3.7467 33.7581 3.7467C35.4363 3.7467 36.7109 4.22957 37.5819 5.19529C38.4742 6.16103 38.9203 7.52376 38.9203 9.28353V11.6657H35.6063V9.0582C35.6063 7.66326 35.0221 6.96579 33.8536 6.96579C32.6852 6.96579 32.101 7.66326 32.101 9.0582V21.6449C32.101 23.0182 32.6852 23.705 33.8536 23.705C35.0221 23.705 35.6063 23.0182 35.6063 21.6449V18.2005H38.9203V21.3872C38.9203 23.1471 38.4742 24.5099 37.5819 25.4755C36.7109 26.4412 35.4363 26.9241 33.7581 26.9241Z" fill="#FAFAFA"/>
<path d="M40.0615 4.0686H43.5668V13.243H47.327V4.0686H50.8324V26.6022H47.327V16.4621H43.5668V26.6022H40.0615V4.0686Z" fill="#FAFAFA"/>
<path d="M52.4868 4.0686H55.9921V26.6022H52.4868V4.0686Z" fill="#FAFAFA"/>
<path d="M56.7371 4.0686H60.2742L62.5686 21.5482H62.6323L64.9266 4.0686H68.1451L64.7674 26.6022H60.1149L56.7371 4.0686Z" fill="#FAFAFA"/>
<path d="M68.8734 4.0686H72.3785V26.6022H68.8734V4.0686Z" fill="#FAFAFA"/>
<path d="M74.0475 23.1899H77.4253V26.6021H74.0475V23.1899Z" fill="#FAFAFA"/>
<path d="M79.098 4.0686H83.4955L86.9052 17.5566H86.9689V4.0686H90.0918V26.6022H86.4909L82.2846 10.1527H82.2208V26.6022H79.098V4.0686Z" fill="#FAFAFA"/>
<path d="M96.7117 26.9241C95.0123 26.9241 93.7164 26.4412 92.8241 25.4755C91.9319 24.4884 91.4857 23.0827 91.4857 21.2585V9.41229C91.4857 7.58815 91.9319 6.19322 92.8241 5.22748C93.7164 4.24031 95.0123 3.7467 96.7117 3.7467C98.4113 3.7467 99.7072 4.24031 100.599 5.22748C101.492 6.19322 101.938 7.58815 101.938 9.41229V11.3437H98.6237V9.18697C98.6237 7.70619 98.0183 6.96579 96.8074 6.96579C95.5965 6.96579 94.991 7.70619 94.991 9.18697V21.516C94.991 22.9753 95.5965 23.705 96.8074 23.705C98.0183 23.705 98.6237 22.9753 98.6237 21.516V17.1059H96.8711V13.8868H101.938V21.2585C101.938 23.0827 101.492 24.4884 100.599 25.4755C99.7072 26.4412 98.4113 26.9241 96.7117 26.9241Z" fill="#FAFAFA"/>
</g>
<defs>
<clipPath id="clip0_170_441">
<rect width="105.833" height="30" fill="white" transform="translate(0.181152)"/>
</clipPath>
</defs>
</svg>