<svg width="190" height="30" viewBox="0 0 190 30" fill="none" xmlns="http://www.w3.org/2000/svg">
<g clip-path="url(#clip0_174_550)">
<path d="M61.4255 7.05518H58.0924V24.2048H61.4255V7.05518Z" fill="#2A3362"/>
<path d="M74.3255 18.12C74.3255 20.4869 72.8028 21.5504 70.7752 21.5504C68.7476 21.5504 67.3924 20.4869 67.3924 18.24V12.1283H64.0593V19.0138C64.0593 22.4421 66.209 24.4469 69.7842 24.4469C72.0311 24.4469 73.2869 23.6193 74.129 22.6842H74.3235L74.6131 24.2069H77.6793V12.1283H74.3255V18.12Z" fill="#2A3362"/>
<path d="M107.021 21.8152C104.582 21.8152 103.206 20.7042 102.989 19.0862H113.568C113.616 18.7498 113.641 18.4103 113.64 18.0704C113.617 13.7255 110.33 11.8862 106.812 11.8862C102.73 11.8862 99.6621 14.3276 99.6621 18.2649C99.6621 22.0076 102.61 24.4469 107.03 24.4469C110.727 24.4469 113.189 22.8062 113.698 20.2924H110.404C109.992 21.2835 108.809 21.8152 107.021 21.8152ZM106.815 14.52C108.941 14.52 110.172 15.4614 110.367 16.7959H103.061C103.374 15.5173 104.607 14.52 106.804 14.52H106.815Z" fill="#2A3362"/>
<path d="M119.303 13.8621H119.096L118.781 12.1221H115.752V24.2069H119.086V19.0138C119.086 16.6697 120.437 15.3662 122.95 15.3662C123.407 15.3599 123.863 15.4001 124.312 15.4862V12.1283H123.846C121.624 12.1283 120.244 12.5876 119.303 13.8621Z" fill="#2A3362"/>
<path d="M140.677 20.4373H140.485L137.634 12.8773H134.203L131.402 20.4145H131.185L128.528 12.1283H125.218L129.3 24.2069H132.925L135.823 16.5H136.016L138.867 24.2069H142.514L146.597 12.1283H143.286L140.677 20.4373Z" fill="#2A3362"/>
<path d="M159.863 20.6897V16.6469C159.863 13.3614 157.084 11.8883 153.629 11.8883C149.959 11.8883 147.664 13.6283 147.35 16.2331H150.683C150.925 15.0973 151.891 14.4704 153.629 14.4704C155.367 14.4704 156.525 15.1221 156.525 16.4504V16.7587L151.09 17.1724C148.579 17.3669 146.745 18.478 146.745 20.8449C146.745 23.2842 148.848 24.4428 151.939 24.4428C154.434 24.4428 155.954 23.7476 156.885 22.6987H157.051C157.574 23.878 158.636 24.2028 159.79 24.2028H161.191V21.7428H160.877C160.175 21.7428 159.863 21.4055 159.863 20.6897ZM156.528 19.409C156.528 21.3187 154.252 21.9455 152.301 21.9455C150.972 21.9455 150.103 21.6083 150.103 20.6897C150.103 19.8621 150.852 19.4587 151.965 19.3614L156.53 19.0242L156.528 19.409Z" fill="#2A3362"/>
<path d="M172.186 12.1283L168.296 20.8738H168.079L164.141 12.1283H160.541L166.169 24.2069H170.156L175.759 12.1283H172.186Z" fill="#2A3362"/>
<path d="M186.414 20.2924C186 21.2835 184.819 21.8152 183.031 21.8152C180.592 21.8152 179.216 20.7042 178.999 19.0862H189.577C189.626 18.7498 189.65 18.4103 189.65 18.0704C189.627 13.7255 186.339 11.8862 182.822 11.8862C178.74 11.8862 175.674 14.3276 175.674 18.2649C175.674 22.0076 178.62 24.4469 183.039 24.4469C186.737 24.4469 189.199 22.8062 189.708 20.2924H186.414ZM182.814 14.52C184.941 14.52 186.172 15.4614 186.366 16.7959H179.063C179.379 15.5173 180.608 14.52 182.806 14.52H182.814Z" fill="#2A3362"/>
<path d="M52.6758 11.2386C52.6758 10.1752 53.4248 9.71795 54.391 9.71795C54.8404 9.72211 55.2872 9.78683 55.7193 9.91036L56.2758 7.49381C55.469 7.20852 54.6198 7.06162 53.7641 7.05933C51.2999 7.05933 49.32 8.36484 49.32 11.069V12.1283H46.4441V14.7745H49.32V24.2069H52.6758V14.7724H56.4331V12.1283H52.6758V11.2386Z" fill="#2A3362"/>
<path d="M85.0345 8.72278H81.931L81.7572 12.1283H79.1338V14.7745H81.6952V20.729C81.6952 22.7566 82.7296 24.4531 85.8331 24.4531C86.6377 24.4531 87.4398 24.3643 88.2248 24.1883V21.6455C87.7722 21.747 87.3106 21.8038 86.8469 21.8152C85.1814 21.8152 85.0365 20.8738 85.0365 20.1476V14.7683H88.3469V12.1283H85.0345V8.72278Z" fill="#2A3362"/>
<path d="M95.5014 8.72278H92.4083L92.2345 12.1283H89.6049V14.7745H92.1662V20.729C92.1662 22.7566 93.2007 24.4531 96.3042 24.4531C97.1069 24.4506 97.9069 24.3597 98.6897 24.1821V21.6455C98.237 21.747 97.7755 21.8038 97.3118 21.8152C95.6462 21.8152 95.5014 20.8738 95.5014 20.1476V14.7683H98.8221V12.1283H95.5014V8.72278Z" fill="#2A3362"/>
<path d="M0.0476074 6.5979C0.0476074 4.65928 0.614504 3.00411 1.80416 1.81445L3.87312 3.88342C1.57037 6.1779 3.5814 13.3117 10.138 19.8745C16.6945 26.4372 23.8324 28.4462 26.1331 26.1476L28.2021 28.2165C24.3207 32.0979 15.48 29.3441 8.07933 21.9414C2.94623 16.8062 0.0476074 10.98 0.0476074 6.5979Z" fill="#009A46"/>
<path d="M13.0945 30C11.1559 30 9.50068 29.4331 8.30896 28.2435L10.3779 26.1745C12.6765 28.4731 19.8103 26.4621 26.3731 19.9014C32.9359 13.3407 34.9428 6.20694 32.6441 3.90832L34.7131 1.83936C38.5965 5.72073 35.8407 14.5614 28.4379 21.9621C23.3028 27.1035 17.4765 30 13.0945 30Z" fill="#FF5805"/>
<path d="M29.1228 19.0014C27.8669 15.3849 25.3014 11.52 21.8979 8.11866C14.4973 0.715903 5.65657 -2.03996 1.77519 1.84349C1.50001 2.12073 1.73795 2.80556 2.30898 3.37659C2.88001 3.94763 3.56484 4.18349 3.84001 3.90832C6.1407 1.6097 13.2745 3.62073 19.8352 10.1835C22.9386 13.2869 25.2517 16.7525 26.3669 19.9594C27.3435 22.7711 27.2483 25.0387 26.1104 26.1766C25.8331 26.4518 26.0731 27.1387 26.6421 27.7076C27.211 28.2766 27.8979 28.5166 28.1752 28.2394C30.1635 26.2511 30.5007 22.9656 29.1228 19.0014Z" fill="#F5AFCB"/>
<path d="M34.709 1.84345C32.7166 -0.148963 29.4352 -0.486205 25.4669 0.893795C21.8524 2.14759 17.9855 4.71518 14.5841 8.11656C7.18345 15.5172 4.42759 24.3579 8.30897 28.2414C8.58621 28.5166 9.27104 28.2786 9.84207 27.7097C10.4131 27.1407 10.651 26.4538 10.3738 26.1766C8.06897 23.8779 10.0862 16.7441 16.649 10.1814C19.7524 7.07793 23.2179 4.76483 26.4248 3.64966C29.2366 2.67517 31.5041 2.76828 32.6441 3.90621C32.9193 4.18138 33.6062 3.94345 34.1752 3.37242C34.7441 2.80138 34.9841 2.11862 34.709 1.84345Z" fill="#FF9B00"/>
</g>
<defs>
<clipPath id="clip0_174_550">
<rect width="189.931" height="30" fill="white"/>
</clipPath>
</defs>
</svg>