<svg width="158" height="30" viewBox="0 0 158 30" fill="none" xmlns="http://www.w3.org/2000/svg">
<g clip-path="url(#clip0_197_568)">
<path d="M148.998 0.337646L151.719 2.23102L151.576 7.95089L148.855 6.05751L148.998 0.337646Z" fill="black"/>
<path d="M148.831 7.02307L151.552 8.91645L151.251 20.9324L148.53 19.039L148.831 7.02307Z" fill="black"/>
<path d="M154.952 21.4569L157.672 23.3503L157.531 28.9947L154.81 27.1013L154.952 21.4569Z" fill="black"/>
<path d="M120.408 5.99207L123.128 7.88544L122.971 14.1735L120.25 12.2801L120.408 5.99207Z" fill="black"/>
<path d="M106.181 17.3981L108.902 19.2914L108.661 28.8973L105.942 27.004L106.181 17.3981Z" fill="black"/>
<path d="M106.611 0.156738L109.332 2.05012L109.087 11.815L106.368 9.92165L106.611 0.156738Z" fill="black"/>
<path d="M111.208 10.4247L113.929 12.3181L110.523 12.3558L107.802 10.4624L111.208 10.4247Z" fill="black"/>
<path d="M137.319 0.244507L140.04 2.13789L139.703 12.9756L136.983 11.0823L137.319 0.244507Z" fill="black"/>
<path d="M128.862 5.89856L131.583 7.79194L123.128 7.88531L120.408 5.99194L128.862 5.89856Z" fill="black"/>
<path d="M129.092 12.1829L131.812 14.0762L131.687 19.0968L128.968 17.2034L129.092 12.1829Z" fill="black"/>
<path d="M136.983 11.082L139.703 12.9754L131.452 13.0668L128.731 11.1734L136.983 11.082Z" fill="black"/>
<path d="M4.05911 7.07275L6.77777 8.96613L3.2226 9.00587L0.501953 7.11249L4.05911 7.07275Z" fill="black"/>
<path d="M15.2663 0L17.9869 1.89338L17.8137 8.84305L15.093 6.94967L15.2663 0Z" fill="black"/>
<path d="M15.0931 6.94971L17.8137 8.84308L14.9158 8.87686L12.1971 6.98348L15.0931 6.94971Z" fill="black"/>
<path d="M12.1971 6.98352L14.9158 8.8769L14.5573 23.243L11.8386 21.3497L12.1971 6.98352Z" fill="black"/>
<path d="M31.8511 26.8829L34.5698 28.7763L2.72065 29.1319L0 27.2386L31.8511 26.8829Z" fill="black"/>
<path d="M32.112 16.5199L34.8446 18.3994L34.5697 28.7761L31.8511 26.8827L32.112 16.5199Z" fill="black"/>
<path d="M44.0701 7.97888L46.7888 9.87226L46.731 12.2425L44.0104 10.3491L44.0701 7.97888Z" fill="black"/>
<mask id="mask0_197_568" style="mask-type:luminance" maskUnits="userSpaceOnUse" x="35" y="27" width="6" height="3">
<path d="M37.7545 29.0362L35.0338 27.1428C35.8743 27.7269 36.9 28.0647 38.0174 28.0508L40.738 29.9441C39.6227 29.9561 38.595 29.6203 37.7545 29.0362Z" fill="white"/>
</mask>
<g mask="url(#mask0_197_568)">
<path d="M38.0174 28.0508L40.738 29.9441C39.6227 29.9561 38.595 29.6203 37.7545 29.0362L35.0338 27.1428C35.8743 27.7269 36.9 28.0647 38.0174 28.0508Z" fill="black"/>
</g>
<path d="M43.7514 15.2324L46.4721 17.1258L46.2968 24.0993L43.5762 22.206L43.7514 15.2324Z" fill="black"/>
<path d="M55.9327 7.8457L58.6533 9.73908L46.7888 9.87219L44.0702 7.97882L55.9327 7.8457Z" fill="black"/>
<mask id="mask1_197_568" style="mask-type:luminance" maskUnits="userSpaceOnUse" x="60" y="2" width="8" height="11">
<path d="M60.7068 2.55676L63.4274 4.45014C66.0844 6.29981 67.7793 9.43093 67.6897 12.9991L64.969 11.1058C65.0586 7.53557 63.3637 4.40643 60.7068 2.55676Z" fill="white"/>
</mask>
<g mask="url(#mask1_197_568)">
<path d="M60.7068 2.55676L63.4274 4.45014C63.6883 4.63093 63.9393 4.82564 64.1803 5.03027L61.4596 3.1369C61.2187 2.93226 60.9677 2.73756 60.7068 2.55676Z" fill="black"/>
<path d="M61.4596 3.13684L64.1802 5.03022C64.5248 5.32227 64.8495 5.64015 65.1502 5.9779L62.4296 4.08452C62.1288 3.74677 61.8042 3.43088 61.4596 3.13684Z" fill="black"/>
<path d="M62.4296 4.08447L65.1502 5.97785C65.5625 6.43878 65.931 6.93944 66.2516 7.47388L63.531 5.5805C63.2103 5.04606 62.8399 4.5454 62.4296 4.08447Z" fill="black"/>
<path d="M63.531 5.58069L66.2517 7.47407C67.0025 8.72175 67.4905 10.1542 67.6419 11.6959L64.9212 9.80254C64.7698 8.26082 64.2819 6.83036 63.531 5.58069Z" fill="black"/>
<path d="M64.9213 9.80261L67.6419 11.696C67.6837 12.1231 67.6997 12.5582 67.6897 13.0013L64.9691 11.1079C64.981 10.6649 64.9631 10.2298 64.9213 9.80261Z" fill="black"/>
</g>
<path d="M64.8714 14.998L67.592 16.8914L46.4721 17.1259L43.7515 15.2325L64.8714 14.998Z" fill="black"/>
<path d="M64.9689 11.1061L67.6896 12.9995L67.592 16.8915L64.8713 14.9981L64.9689 11.1061Z" fill="black"/>
<path d="M59.2389 27.8146L61.9596 29.708L40.7381 29.9444L38.0175 28.051L59.2389 27.8146Z" fill="black"/>
<path d="M64.8116 17.3701L67.5323 19.2635L67.4068 24.2761L64.6862 22.3828L64.8116 17.3701Z" fill="black"/>
<mask id="mask2_197_568" style="mask-type:luminance" maskUnits="userSpaceOnUse" x="59" y="22" width="9" height="8">
<path d="M64.6862 22.3828L67.4068 24.2762C67.3331 27.2424 64.8933 29.6762 61.9595 29.708L59.2389 27.8146C62.1727 27.7828 64.6125 25.349 64.6862 22.3828Z" fill="white"/>
</mask>
<g mask="url(#mask2_197_568)">
<path d="M64.6861 22.3828L67.4068 24.2762C67.4048 24.3855 67.3988 24.4967 67.3889 24.604L64.6682 22.7106C64.6782 22.6014 64.6841 22.4921 64.6861 22.3828Z" fill="black"/>
<path d="M64.6682 22.7108L67.3888 24.6042C67.3689 24.8446 67.3331 25.079 67.2833 25.3095L64.5626 23.4161C64.6124 23.1857 64.6483 22.9512 64.6682 22.7108Z" fill="black"/>
<path d="M64.5627 23.4158L67.2833 25.3091C67.2395 25.5118 67.1837 25.7105 67.118 25.9052L64.3973 24.0118C64.4631 23.8171 64.5188 23.6184 64.5627 23.4158Z" fill="black"/>
<path d="M64.3993 24.0117L67.12 25.9051C67.0582 26.0899 66.9865 26.2687 66.9049 26.4455L64.1842 24.5521C64.2639 24.3773 64.3356 24.1965 64.3993 24.0117Z" fill="black"/>
<path d="M64.1842 24.5524L66.9049 26.4457C66.8252 26.6206 66.7356 26.7914 66.638 26.9563L63.9174 25.063C64.015 24.8981 64.1046 24.7272 64.1842 24.5524Z" fill="black"/>
<path d="M63.9174 25.063L66.6381 26.9564C66.5365 27.1292 66.4269 27.2941 66.3074 27.4531L63.5868 25.5597C63.7043 25.4007 63.8158 25.2338 63.9174 25.063Z" fill="black"/>
<path d="M63.5867 25.5597L66.3074 27.4531C66.1759 27.6319 66.0325 27.8008 65.8812 27.9617L63.1605 26.0683C63.3119 25.9074 63.4553 25.7365 63.5867 25.5597Z" fill="black"/>
<path d="M63.1625 26.0704L65.8831 27.9638C65.6979 28.1605 65.5007 28.3433 65.2896 28.5102L62.569 26.6168C62.7801 26.4499 62.9773 26.2671 63.1625 26.0704Z" fill="black"/>
<path d="M62.569 26.6168L65.2897 28.5102C64.3655 29.2473 63.2063 29.6963 61.9595 29.7082L59.2389 27.8148C60.4857 27.8009 61.6429 27.3539 62.569 26.6168Z" fill="black"/>
</g>
<path d="M71.6093 10.1682L74.3299 12.0616L68.554 12.1252L65.8334 10.2318L71.6093 10.1682Z" fill="black"/>
<path d="M78.8909 9.94775L81.6095 11.8411L79.9544 11.861L77.2338 9.96762L78.8909 9.94775Z" fill="black"/>
<path d="M77.2338 9.96753L79.9545 11.8609L79.9007 19.5298L77.1801 17.6364L77.2338 9.96753Z" fill="black"/>
<path d="M83.418 0.415161L86.1366 2.30853L88.5366 16.0867L85.818 14.1933L83.418 0.415161Z" fill="black"/>
<path d="M79.4088 27.298L82.1294 29.1914L68.1219 29.3483L65.4032 27.4549L79.4088 27.298Z" fill="black"/>
<path d="M79.6517 17.6088L82.3723 19.5021L82.1293 29.1916L79.4087 27.2982L79.6517 17.6088Z" fill="black"/>
<path d="M95.0255 9.90771L97.7462 11.8011L95.6768 11.8229L92.9562 9.92957L95.0255 9.90771Z" fill="black"/>
<path d="M92.9562 9.92993L95.6768 11.8233L91.9384 23.4398L89.2178 21.5464L92.9562 9.92993Z" fill="black"/>
<path d="M89.2178 21.5461L91.9385 23.4395L84.3521 23.523L81.6315 21.6296L89.2178 21.5461Z" fill="black"/>
<path d="M100.676 9.98535L103.397 11.8787L103.211 19.2714L100.493 17.3781L100.676 9.98535Z" fill="black"/>
<path d="M106.368 9.92175L109.087 11.8151L103.397 11.8787L100.676 9.98533L106.368 9.92175Z" fill="black"/>
<path d="M105.942 27.004L108.661 28.8974L94.695 29.0524L91.9744 27.159L105.942 27.004Z" fill="black"/>
<path d="M148.855 6.05762L151.576 7.95099L140.954 8.06821L138.235 6.17484L148.855 6.05762Z" fill="black"/>
<path d="M136.983 11.0823L128.731 11.1737L128.862 5.89882L120.408 5.99219L120.25 12.2803L129.091 12.1829L128.968 17.2035L120.22 17.2114L120.209 17.6604L119.962 27.5464L107.372 27.6855L107.619 17.8015L111.025 17.7637L111.208 10.4246L107.802 10.4624L108.049 0.576295L111.455 0.538547L137.319 0.244507L136.983 11.0823Z" fill="#5CC793"/>
<path d="M15.2663 0L15.093 6.94967L12.1971 6.98344L11.8386 21.3497L17.6324 21.2841L17.746 16.6808L32.112 16.5199L31.8511 26.8828L0 27.2384L0.143402 21.4788L3.75434 19.2079L4.05907 7.07285L0.501906 7.11258L0.677175 0.162914L15.2663 0Z" fill="#5CC793"/>
<path d="M64.8714 14.9979L43.7515 15.2324L43.5782 22.206L47.3007 22.1642L47.4162 17.5628L64.8136 17.3701L64.6881 22.3828C64.6144 25.349 62.1746 27.7828 59.2408 27.8146L38.0194 28.051C35.0856 28.0828 32.7653 25.7046 32.839 22.7364L33.1198 11.4595C33.2632 5.69993 37.9975 0.981383 43.6897 0.917806L54.9189 0.792641C60.6131 0.729065 65.1104 5.34629 64.967 11.1039L64.8694 14.996L64.8714 14.9979ZM44.0701 7.97874L44.0104 10.3489L55.8729 10.2178L55.9326 7.84761L44.0701 7.97874Z" fill="#5CC793"/>
<path d="M106.611 0.156738L106.368 9.92165L100.676 9.98522L100.493 17.3779L106.181 17.3978L105.942 27.0037L91.9744 27.1587L92.2134 17.6084L94.8344 17.5786L95.0256 9.90774L92.9563 9.92959L89.2179 21.5461L81.6315 21.6296L78.8909 9.94747L77.2338 9.96734L77.1801 17.6362L79.6518 17.6084L79.4088 27.2978L65.4032 27.4547L65.6442 17.7654L71.4221 17.6998L71.6093 10.168L65.8334 10.2316L66.0744 0.607731L83.418 0.415016L85.818 14.1932L89.3891 0.347466L106.611 0.156738Z" fill="#5CC793"/>
<path d="M148.998 0.337646L148.855 6.05751L138.235 6.17473L138.379 0.456852L148.998 0.337646Z" fill="#5CC793"/>
<path d="M148.831 7.02307L148.53 19.039L154.952 21.4569L154.81 27.1013L131.914 27.3556L132.055 21.7112L137.771 19.1582L138.072 7.14228L148.831 7.02307Z" fill="#5CC793"/>
<path d="M154.81 27.1013L157.531 28.9947L134.634 29.249L131.914 27.3556L154.81 27.1013Z" fill="black"/>
<path d="M120.22 17.2114L122.939 19.1048L122.929 19.5538L120.208 17.6604L120.22 17.2114Z" fill="black"/>
<path d="M119.962 27.5464L122.682 29.4398L110.093 29.5788L107.372 27.6855L119.962 27.5464Z" fill="black"/>
<path d="M120.209 17.6604L122.929 19.5538L122.682 29.44L119.962 27.5466L120.209 17.6604Z" fill="black"/>
<path d="M128.968 17.2032L131.687 19.0966L122.939 19.1046L120.22 17.2112L128.968 17.2032Z" fill="black"/>
</g>
<defs>
<clipPath id="clip0_197_568">
<rect width="157.742" height="30" fill="white"/>
</clipPath>
</defs>
</svg>
