<svg width="75" height="41" viewBox="0 0 75 41" fill="none" xmlns="http://www.w3.org/2000/svg">
<path d="M63.9539 8.5444H63.9535C60.7854 8.54444 57.1179 7.81877 54.0933 8.76498L52.2824 8.80549C50.8355 8.27435 49.2783 8.12818 47.8219 8.27599C47.62 8.03766 47.3983 7.8079 47.1551 7.58928C45.9106 6.36112 44.7307 5.07017 43.4033 3.92459C40.0847 1.06025 34.5484 1.52923 31.5717 4.65102C30.506 5.76882 29.8205 7.16259 29.4892 8.56858C28.0757 8.49871 26.6663 8.63892 25.3209 9.08808C24.5619 8.8238 23.7851 8.65616 23.0186 8.57061C22.7663 7.46625 22.2557 6.45876 21.4219 5.58657L17.4932 1.73654C14.3502 -1.0802 9.15416 -0.310931 6.86455 3.17734C6.6158 3.55629 6.36224 3.94995 6.11401 4.33693C5.45005 4.56177 4.65187 4.85832 3.98849 5.20208C2.53283 5.95643 0.777342 7.34446 0.199827 9.84834C-0.326821 12.1317 0.375182 15.6579 3.86166 17.2329C4.40119 19.2881 5.8367 20.4844 7.26312 21.9331L6.93139 23.7709C6.49031 26.248 7.54841 28.5599 9.27966 29.9793L12.5699 33.2391C13.8278 34.3993 15.4777 35.082 17.2134 35.0826C18.7942 35.0826 20.4245 35.2232 21.9356 34.6788C22.4563 34.8671 23.0098 34.9946 23.5876 35.0505L26.8609 38.2429C31.2418 42.7255 40.3793 41.4341 41.9083 34.9059C42.2244 34.841 42.5398 34.7588 42.8526 34.6577C44.4061 34.9398 46.0768 34.7589 47.6464 34.7589C49.4221 34.7546 51.1384 33.9689 52.2921 32.6484C55.0008 35.0103 58.9481 35.6911 62.3774 34.6396C65.7648 35.7162 69.9112 34.9914 72.3567 32.3501C73.4614 31.1568 73.8443 29.8287 73.9887 28.8155C74.2758 26.8023 74.1905 24.6441 73.0144 22.9035L73.6815 19.2288C74.0259 17.3365 73.3979 15.3792 72.0618 13.9833L68.4913 10.4904C67.376 9.3091 65.7619 8.54432 63.9539 8.5444Z" fill="#C6F8DB"/>
<path d="M32.9923 13.5755C31.8345 12.5136 30.1568 12.2729 28.7366 12.2706C27.5228 12.251 26.3123 12.573 25.2755 13.1913C24.2788 12.5408 23.0524 12.2303 21.8217 12.2222C21.18 11.7864 20.3704 11.5602 19.6571 11.2648C19.5524 10.6908 19.4492 10.1165 19.3451 9.54234C19.239 8.95504 19.0166 8.51314 18.65 8.12985L14.8678 4.42606C13.5516 3.24649 11.1293 3.5587 10.0588 5.18967C9.56773 5.93779 9.08978 6.69445 8.60439 7.44613C6.80508 8.07119 4.39671 8.53277 3.90414 10.6684C3.65357 11.7547 4.02611 13.2697 5.56986 13.9053C6.11753 14.1305 6.66549 14.357 7.21287 14.584C7.45472 15.9097 7.51544 17.374 8.81721 18.1525L11.3397 20.7145L10.6726 24.4102C10.4764 25.5123 10.9763 26.581 11.8284 27.2131L15.2225 30.5759C15.7461 31.0587 16.4452 31.3619 17.2149 31.3623H19.6159C20.5486 31.3623 21.3971 30.9296 21.9414 30.2451C22.4717 30.9157 23.2989 31.3602 24.2491 31.3623H25.3765C25.5355 31.6144 25.7242 31.8565 25.9465 32.0861C27.1235 33.3022 28.3874 34.4568 29.5891 35.6546C31.3352 37.4588 34.6791 37.7452 36.7384 36.2737C38.4287 35.0658 38.8097 32.6716 37.6194 30.9929C39.2063 31.5482 41.2274 31.5736 42.674 30.6517C43.0538 30.9033 43.5039 31.0355 43.9617 31.0384H47.6418C48.737 31.0358 49.7074 30.253 49.9173 29.1993L50.5694 25.5937C50.7872 25.907 51.0539 26.2024 51.3777 26.4751C52.5803 27.6594 53.7269 28.954 55.0204 30.0436C56.946 31.6658 60.2473 31.8135 62.4209 30.5885C64.4688 31.8571 67.885 31.6422 69.5437 29.8505C70.3924 28.9338 70.2621 27.7271 70.3136 26.572C70.3541 25.5735 69.8159 24.6159 68.9384 24.1082L69.9426 18.5767C70.0816 17.8119 69.8251 17.0857 69.3342 16.5728L65.742 13.0586C65.3067 12.5745 64.6691 12.2648 63.9539 12.2648H63.953L60.8209 12.2649C60.6168 12.2657 60.4063 12.2919 60.1974 12.3478C57.7865 11.5148 54.7749 11.9679 52.8395 13.611C51.3887 11.8407 48.5166 11.529 46.4719 12.4105C46.2169 12.3141 45.9462 12.2642 45.6733 12.2596C45.5066 11.5027 45.1387 10.8054 44.5355 10.2848C43.3289 9.1018 42.1736 7.82168 40.8929 6.71617C39.1127 5.17963 35.9161 5.54508 34.347 7.1907C33.001 8.60233 32.5689 11.1877 33.6953 12.8533C33.4223 13.0529 33.1839 13.2969 32.9923 13.5755Z" fill="#000F12"/>
<path fill-rule="evenodd" clip-rule="evenodd" d="M7.94029 12.5606L6.41747 11.9317C5.73014 11.6494 5.96634 10.6312 6.78121 10.3488L9.25365 9.49234C9.64695 9.3561 9.8436 9.28798 10.0035 9.16292C10.1634 9.03787 10.2747 8.86508 10.4975 8.51952L11.8972 6.34775C12.3695 5.62806 13.4205 5.62806 13.5505 6.34775L13.8393 7.94279C13.9522 8.56627 14.0087 8.87801 14.2015 9.11451C14.3942 9.351 14.6921 9.4739 15.2877 9.71971L16.8123 10.3488C17.4973 10.6312 17.2635 11.6494 16.4463 11.9317L13.9739 12.7883C13.5805 12.9245 13.3838 12.9926 13.2239 13.1176C13.0641 13.2427 12.9527 13.4155 12.7299 13.761L11.3303 15.9328C10.8721 16.6525 9.80685 16.6525 9.67693 15.9328L9.38801 14.3373C9.27515 13.714 9.21872 13.4024 9.02605 13.1659C8.83338 12.9295 8.53568 12.8066 7.94029 12.5606ZM29.7798 31.4801C33.5944 31.4801 32.5567 28.2482 31.5885 28.2482C31.1972 28.2482 30.7305 28.0494 30.7305 27.6462C30.7305 27.6255 30.8379 26.8869 30.9948 25.8064C31.4222 22.8661 32.2175 17.3944 32.2175 16.9791C32.2215 16.4306 32.0602 15.8931 31.7538 15.4342C31.2899 14.7526 30.2774 14.4117 28.7159 14.4117C28.026 14.3981 27.3432 14.5487 26.7256 14.8504C26.1082 15.1522 25.5747 15.5961 25.1708 16.1441C25.1103 16.2271 24.9703 16.2092 24.9361 16.11C24.5669 14.9741 23.446 14.4061 21.5735 14.4061C20.9732 14.3951 20.3773 14.5079 19.8244 14.7374C19.2716 14.9669 18.7742 15.3079 18.3647 15.738C18.2788 15.8295 18.1101 15.7518 18.1357 15.6244C18.2209 15.1639 17.8418 14.7253 17.3704 14.7242H15.2921C14.9196 14.7253 14.5919 14.9953 14.5268 15.3546L12.8253 24.7806C12.7467 25.2224 13.1092 25.6522 13.5732 25.6525H15.9732C16.3367 25.6526 16.6573 25.3896 16.7211 25.0391L17.9008 18.4928C18.0835 17.7174 18.6343 17.7004 19.6256 17.7004C20.4604 17.7004 20.8779 18.0639 20.8779 18.791C20.8778 19.065 20.8544 19.3386 20.8083 19.6089L19.875 24.8004C19.802 25.2332 20.1575 25.6515 20.6112 25.6525H23.0403C23.3962 25.6481 23.7071 25.3882 23.7678 25.0447L24.9071 18.6661C24.9969 18.152 25.8955 17.6152 26.8143 17.7004C27.4579 17.7601 28.3391 17.9673 28.2348 18.7683C27.8956 21.3839 26.8637 27.9501 26.8637 27.9501C26.4694 30.3441 28.0695 31.4801 29.7798 31.4801ZM38.1582 22.4206H38.1291C37.5812 22.4206 37.359 22.039 37.4421 21.5571L38.5668 15.3632C38.6514 14.8715 38.2458 14.4077 37.7437 14.4061H35.5001C35.0995 14.4055 34.7463 14.6955 34.6768 15.0819L33.4072 22.0855C33.2698 22.9656 33.2053 23.9236 33.7319 24.6982C34.1493 25.3344 35.0614 25.6525 36.4682 25.6525C39.1466 25.6525 39.3872 22.4206 38.1582 22.4206ZM37.9872 7.90245C36.1723 7.92774 35.2624 8.94527 35.2624 10.697C35.2624 11.7876 35.9077 12.3328 37.1986 12.3328C38.9851 12.3328 39.9351 11.316 39.9351 9.58373C39.9351 8.46287 39.2857 7.90245 37.9872 7.90245ZM47.4312 17.5212C48.6222 17.8352 50.9276 18.4428 51.4602 17.0302C51.7501 16.2605 51.7761 14.0823 48.7239 14.0936C47.6263 14.0936 46.6697 14.567 45.8542 15.5136C45.7688 15.6166 45.5969 15.5334 45.6194 15.4086L45.7729 14.5565C45.7871 14.4766 45.7214 14.401 45.6396 14.4003H42.2511C42.1878 14.3994 42.1288 14.4471 42.1178 14.5083L40.193 25.1725C40.1792 25.2514 40.2435 25.3281 40.3263 25.3287H43.9961C44.0592 25.3285 44.1174 25.2814 44.1294 25.2208L45.4019 18.1832C45.4829 17.5489 46.2404 17.3767 46.776 17.3767C46.8827 17.3767 47.1185 17.4389 47.4312 17.5212ZM63.9075 22.304C62.8438 22.2643 62.8148 22.0115 62.8901 21.5571V21.5629L64.1481 14.6333C64.1695 14.5167 64.0732 14.406 63.9539 14.4061H60.8292C60.6485 14.4067 60.6239 14.5971 60.6048 14.745C60.6014 14.7711 60.5982 14.7957 60.5943 14.8178C60.5789 14.9225 60.4425 14.9643 60.3682 14.8917C59.8252 14.371 58.9111 14.1107 57.626 14.1107C56.2038 14.1107 55.0442 14.5197 54.1476 15.3376C53.2309 16.2064 52.6354 17.3494 52.4549 18.5865L51.9678 21.2448C51.8941 21.6422 51.8552 22.0451 51.8518 22.449C51.8518 24.5846 53.1196 25.6525 55.6549 25.6525C56.2844 25.6778 56.9104 25.5481 57.4755 25.2753C58.0406 25.0023 58.527 24.595 58.8899 24.0904C58.9589 24 59.1089 24.0324 59.1363 24.1388C59.432 25.1441 60.3528 25.6468 61.8987 25.6468C63.7655 25.6468 64.409 24.7266 64.409 24.6698L64.4873 22.9146C64.5001 22.5939 64.2318 22.3146 63.9075 22.304ZM56.3043 22.0343C55.9295 21.6921 55.9144 21.2005 56.0028 20.7392L56.3159 19.0353C56.5149 17.9144 57.2106 17.3539 58.4029 17.3539C58.6402 17.3539 59.7498 17.5041 59.5885 17.9675L58.9101 21.6964C58.807 22.1702 57.8721 22.3772 57.4637 22.375C57.0466 22.4149 56.6301 22.2925 56.3043 22.0343Z" fill="#C6F8DB"/>
</svg>
