<svg width="160" height="30" viewBox="0 0 160 30" fill="none" xmlns="http://www.w3.org/2000/svg">
<g clip-path="url(#clip0_170_453)">
<path d="M42.72 24.3289V30.0001H39.1258V11.5381H42.72V12.4213C43.7905 11.7326 45.0375 11.361 46.3143 11.3503C50.3957 11.3503 53.3969 14.5614 53.3969 18.387C53.3969 22.2125 50.4237 25.4236 46.3143 25.4236C45.0321 25.4257 43.7792 25.0441 42.72 24.3289ZM42.72 16.7034V19.9678C43.0036 20.5652 43.4442 21.0762 43.9958 21.4472C44.5473 21.8183 45.1896 22.0358 45.8552 22.0769C46.5209 22.1181 47.1854 21.9814 47.7794 21.6811C48.3733 21.3809 48.8748 20.9282 49.2313 20.3704C49.5877 19.8125 49.7861 19.1701 49.8056 18.5104C49.8251 17.8507 49.665 17.1979 49.3421 16.6204C49.0192 16.0429 48.5454 15.5619 47.9702 15.2279C47.395 14.8938 46.7396 14.7189 46.0727 14.7214C45.3831 14.7118 44.7044 14.8921 44.1124 15.242C43.5204 15.592 43.0383 16.098 42.72 16.7034Z" fill="#083E9E"/>
<path d="M55.3438 7.81716C55.332 7.54792 55.3761 7.27915 55.4731 7.02737C55.5702 6.77559 55.7184 6.54613 55.9084 6.35309C56.0984 6.16005 56.3263 6.00751 56.5781 5.90486C56.8299 5.80221 57.1002 5.75161 57.3725 5.75617C57.6486 5.75143 57.9228 5.80131 58.1791 5.90288C58.4354 6.00445 58.6686 6.15567 58.865 6.34766C59.0614 6.53965 59.2171 6.76854 59.3229 7.02088C59.4287 7.27323 59.4825 7.54396 59.4812 7.81716C59.4754 8.36663 59.2506 8.89161 58.8557 9.27794C58.4608 9.66426 57.9278 9.88068 57.3725 9.88013C57.1017 9.87889 56.8339 9.82427 56.5847 9.71946C56.3354 9.61466 56.1098 9.46176 55.9209 9.26971C55.7321 9.07766 55.5838 8.8503 55.4847 8.60091C55.3856 8.35151 55.3377 8.08508 55.3438 7.81716ZM55.5614 11.538H59.2116V25.2101H55.5614V11.538Z" fill="#083E9E"/>
<path d="M61.3722 18.3356C61.3649 17.4154 61.5435 16.503 61.8977 15.6521C62.2518 14.8013 62.7742 14.029 63.4343 13.3808C64.0943 12.7326 64.8787 12.2215 65.7412 11.8775C66.6037 11.5336 67.527 11.3638 68.4568 11.378C69.7281 11.3787 70.9794 11.691 72.099 12.287V11.5381H75.6693V24.4336C75.6693 27.9905 72.5583 29.9191 68.6665 29.9191C66.1246 29.9191 63.6904 29.1701 62.095 27.943L63.5826 25.4019C65.0989 26.3631 66.8659 26.8652 68.6665 26.8463C71.1805 26.8463 71.9652 25.8583 72.073 24.2518C70.9901 24.9373 69.7343 25.3077 68.4488 25.3209C64.3115 25.3169 61.3722 22.2679 61.3722 18.3356ZM72.099 19.8591V16.8101C71.797 16.1739 71.3193 15.6352 70.7211 15.2562C70.123 14.8772 69.4287 14.6733 68.7184 14.6681C68.2279 14.6634 67.7414 14.7547 67.2867 14.9367C66.832 15.1187 66.4181 15.3879 66.0689 15.7287C65.7197 16.0695 65.442 16.4753 65.2517 16.9227C65.0615 17.37 64.9625 17.8502 64.9604 18.3356C64.9604 20.448 66.5818 21.9201 68.6924 21.9201C69.4006 21.9384 70.0991 21.7535 70.7035 21.3878C71.3079 21.0221 71.7926 20.4912 72.099 19.8591Z" fill="#083E9E"/>
<path d="M77.8358 18.3356C77.8285 17.4154 78.0072 16.503 78.3613 15.6521C78.7154 14.8013 79.2379 14.029 79.8979 13.3808C80.558 12.7326 81.3423 12.2215 82.2048 11.8775C83.0673 11.5336 83.9906 11.3638 84.9204 11.378C86.1944 11.3776 87.4486 11.6899 88.5706 12.287V11.5381H92.1389V24.4336C92.1389 27.9905 89.0299 29.9191 85.1381 29.9191C82.5962 29.9191 80.1621 29.1701 78.5666 27.943L80.0542 25.4019C81.5703 26.3635 83.3374 26.8655 85.1381 26.8463C87.6521 26.8463 88.4368 25.8583 88.5446 24.2518C87.4616 24.937 86.2058 25.3074 84.9204 25.3209C80.7831 25.3169 77.8358 22.2679 77.8358 18.3356ZM88.5706 19.8591V16.8101C88.2684 16.1741 87.7907 15.6355 87.1925 15.2565C86.5944 14.8775 85.9002 14.6736 85.19 14.6681C84.6995 14.6634 84.213 14.7547 83.7583 14.9367C83.3036 15.1187 82.8897 15.3879 82.5405 15.7287C82.1913 16.0695 81.9136 16.4753 81.7233 16.9227C81.5331 17.37 81.4341 17.8502 81.432 18.3356C81.432 20.448 83.0534 21.9201 85.164 21.9201C85.8722 21.9381 86.5705 21.7532 87.1749 21.3875C87.7793 21.0218 88.264 20.4911 88.5706 19.8591Z" fill="#083E9E"/>
<path d="M97.3825 11.5381L101.007 20.6614L104.737 11.5381H108.531L100.573 30.0001H97.1948L99.1916 25.0778L93.3829 11.5381H97.3825Z" fill="#083E9E"/>
<path d="M107.842 11.5381H111.708L115.23 20.7701L118.718 11.5381H122.512L116.969 25.2102H113.333L107.842 11.5381Z" fill="#083E9E"/>
<path d="M122.768 18.2803C122.768 14.429 125.551 11.2437 129.904 11.2437C133.934 11.2437 136.995 14.2413 137.069 18.1795C137.097 18.5182 137.097 18.8585 137.069 19.1971H126.174C126.282 21.1238 128.147 22.3805 130.148 22.3805C131.797 22.3805 132.77 21.926 133.906 20.9973L135.881 23.0583C134.283 24.7162 132.686 25.4928 130.148 25.4928C125.471 25.4789 122.768 22.0268 122.768 18.2803ZM126.362 16.6481H133.339C132.987 15.3656 131.741 14.2413 129.85 14.2413C127.66 14.2413 126.741 15.338 126.362 16.6481Z" fill="#083E9E"/>
<path d="M137.824 23.74L139.591 20.9024C141.177 21.9486 143.036 22.5157 144.942 22.5346C146.755 22.5346 147.674 22.0801 147.674 21.3055C147.674 20.7957 147.241 20.4222 146.322 20.2345L142.528 19.4322C139.745 18.8394 138.473 17.5333 138.473 15.3932C138.473 13.1188 140.42 11.2179 144.449 11.2179C146.881 11.2179 149.042 11.9154 150.531 12.8244L148.882 15.5533C147.666 14.9111 146.045 14.2155 144.339 14.2155C142.8 14.2155 141.907 14.591 141.907 15.2846C141.907 15.741 142.233 16.0354 143.123 16.1955L146.318 16.7883C149.779 17.4562 151.11 18.9817 151.11 21.0427C151.11 24.0067 148.115 25.5638 144.836 25.5638C142.373 25.6109 139.945 24.9795 137.824 23.74Z" fill="#083E9E"/>
<path d="M151.829 11.538H153.884V7.76579L157.478 5.4657V11.538H159.587V14.6424H157.48V25.2121H153.886V14.6424H151.827V11.538H151.829Z" fill="#083E9E"/>
<path d="M30.1262 13.7376C30.0662 12.8697 29.9225 12.0095 29.6969 11.1688C28.6685 7.41433 26.502 4.46017 23.1993 2.35175C21.119 1.0129 18.7295 0.218125 16.2544 0.041781C15.2145 -0.0333815 14.1697 -0.0055792 13.1354 0.124774C12.0458 0.267493 10.9747 0.525184 9.94051 0.893447C7.18654 1.87651 4.78298 3.63472 3.02548 5.9518C1.26798 8.26888 0.233171 11.0438 0.0483499 13.9352C0.0144043 14.4668 0.0144043 15.0023 0.0144043 15.5358V28.5064C0.0144043 28.8434 0.149677 29.1666 0.390463 29.4048C0.631249 29.6431 0.957825 29.777 1.29835 29.777H6.36224C6.67914 29.7751 6.98431 29.6581 7.21987 29.4483C7.45542 29.2385 7.60499 28.9505 7.64019 28.6388C7.67351 28.517 7.69096 28.3915 7.69211 28.2653V27.965C7.68912 27.942 7.68912 27.9188 7.69211 27.8958V27.8622C7.72665 27.8713 7.75916 27.8867 7.78796 27.9077C9.68208 28.9442 11.7798 29.5643 13.9381 29.7256C14.8026 29.7889 15.6709 29.7803 16.534 29.6999C18.5656 29.5148 20.5375 28.9199 22.328 27.9521C24.1186 26.9842 25.6899 25.6638 26.9453 24.0722C28.7346 21.8447 29.8296 19.1496 30.0962 16.3163C30.1866 15.4595 30.1966 14.5962 30.1262 13.7376ZM17.7859 22.025C17.777 22.0707 17.7521 22.1118 17.7156 22.1411C17.6791 22.1704 17.6333 22.186 17.5863 22.1851H12.5943C12.5473 22.186 12.5015 22.1704 12.4649 22.1411C12.4284 22.1118 12.4035 22.0707 12.3946 22.025V21.9934V21.8097C12.3935 21.5829 12.4189 21.3568 12.4705 21.1358C12.5024 21.0607 12.5224 20.9718 12.5543 20.8888C12.5863 20.8058 12.6182 20.7288 12.6502 20.6478C12.6821 20.5667 12.734 20.4936 12.778 20.4245L12.8498 20.3178C12.8968 20.2487 12.9481 20.1827 13.0036 20.1202C13.0615 20.049 13.1194 19.9878 13.1773 19.9226C13.4778 19.6302 13.8428 19.411 14.2436 19.2823C13.8983 19.0963 13.6254 18.8018 13.4679 18.4454C13.3103 18.089 13.2771 17.6908 13.3734 17.3136C13.4697 16.9364 13.6901 16.6016 13.9999 16.362C14.3096 16.1225 14.6911 15.9917 15.0843 15.9903C15.5537 15.9938 16.003 16.1789 16.3363 16.506C16.5292 16.6981 16.6744 16.932 16.7606 17.189C16.8467 17.4461 16.8714 17.7195 16.8327 17.9876C16.794 18.2558 16.6929 18.5114 16.5375 18.7343C16.3821 18.9572 16.1765 19.1415 15.9369 19.2724C16.4761 19.4483 16.9453 19.7885 17.2774 20.2442C17.6095 20.6999 17.7875 21.2478 17.7859 21.8097C17.7859 21.8808 17.7859 21.9579 17.7859 22.025ZM26.3922 11.2636H3.79635C3.75399 11.2633 3.71231 11.2531 3.67473 11.2338C3.63716 11.2144 3.60475 11.1865 3.58019 11.1524C3.55563 11.1183 3.5396 11.0788 3.53344 11.0374C3.52728 10.9959 3.53116 10.9536 3.54475 10.9139C4.38788 8.54935 5.95137 6.50185 8.01974 5.05357C10.0881 3.60529 12.5595 2.82756 15.0933 2.82756C17.627 2.82756 20.0984 3.60529 22.1668 5.05357C24.2351 6.50185 25.7986 8.54935 26.6418 10.9139C26.6553 10.9534 26.6592 10.9956 26.6532 11.0369C26.6471 11.0782 26.6313 11.1175 26.6069 11.1516C26.5826 11.1857 26.5504 11.2136 26.5131 11.2331C26.4758 11.2526 26.4343 11.263 26.3922 11.2636Z" fill="#083E9E"/>
</g>
<defs>
<clipPath id="clip0_170_453">
<rect width="159.574" height="30" fill="white" transform="translate(0.0144043)"/>
</clipPath>
</defs>
</svg>
