<svg width="103" height="30" viewBox="0 0 103 30" fill="none" xmlns="http://www.w3.org/2000/svg">
<g clip-path="url(#clip0_174_466)">
<path d="M7.70214 11.749L7.48012 1.01629H0.931152V29.1284H7.70214V18.0687C7.86864 9.51529 11.1986 6.73677 20.1342 6.19197V0.580444C12.1421 0.580444 9.20062 3.57688 7.92412 11.749H7.70214Z" fill="#0898A0"/>
<path d="M23.1965 29.1283H29.9675V1.01624H23.1965V29.1283Z" fill="#0898A0"/>
<path d="M47.5042 30C55.6071 30 60.3801 26.7312 60.3801 21.2286C60.3801 17.0335 57.6606 14.6364 52.0551 13.4378L44.5072 11.8579C42.1207 11.3131 40.7887 10.1145 40.7887 8.58905C40.7887 6.35534 43.0642 4.99331 46.8382 4.99331C51.0006 4.99331 53.4426 6.95462 53.4426 10.169H59.9361C59.9361 3.84921 54.9966 0.144531 46.6162 0.144531C38.9572 0.144531 34.1287 3.52233 34.1287 8.75249C34.1287 13.002 37.2922 15.6715 42.5092 16.7067L49.7241 18.2322C52.6656 18.8859 53.6646 19.8121 53.6646 21.501C53.6646 23.7892 51.3336 25.1512 47.5596 25.1512C42.9532 25.1512 40.3447 23.2989 40.1227 19.9755H33.4627C33.6847 26.4042 38.6797 30 47.5042 30Z" fill="#0898A0"/>
<path d="M91.0893 14.1461C91.0893 6.40982 85.7058 0.144531 76.9368 0.144531C68.1123 0.144531 62.2849 5.81052 62.2849 14.9633C62.2849 24.8788 68.2233 30 77.2698 30C83.6523 30 89.9793 26.2408 90.8673 19.3218H84.7068C83.9853 22.4817 81.2658 24.8244 77.2698 24.8244C72.3858 24.8244 68.9448 21.7734 68.7783 16.3254H91.0893V14.1461ZM76.6593 5.3202C81.1548 5.3202 84.0963 8.04423 84.4293 12.5661H68.7783C69.1113 7.77183 72.4413 5.3202 76.6593 5.3202Z" fill="#0898A0"/>
<path d="M102.179 4.3153C102.179 6.69858 100.211 8.63061 97.7828 8.63061C95.3549 8.63061 93.3868 6.69858 93.3868 4.3153C93.3868 1.93203 95.3549 0 97.7828 0C100.211 0 102.179 1.93203 102.179 4.3153Z" fill="#0898A0"/>
</g>
<defs>
<clipPath id="clip0_174_466">
<rect width="101.25" height="30" fill="white" transform="translate(0.931152)"/>
</clipPath>
</defs>
</svg>
