<svg width="239" height="34" viewBox="0 0 239 34" fill="none" xmlns="http://www.w3.org/2000/svg">
<path d="M37.4082 1.37933C36.2462 1.69067 35.2627 2.5345 34.6363 3.91081L23.4636 28.7921C23.1065 29.5923 23.1943 30.9686 24.7603 31.3236V32.4351H13.0958V31.3236C15.0628 30.6573 14.615 29.6796 14.214 28.7921L3.08515 4.4433C2.41485 3.02043 1.65381 1.82161 0 1.37642V0.264893H11.3513V1.37642C10.4585 1.59756 9.38425 1.95255 10.1892 3.64311L19.1724 23.1472L27.8893 3.19792C28.1586 2.53159 28.2025 1.55391 26.5048 1.37642V0.264893H37.4112V1.37642L37.4082 1.37933Z" fill="black"/>
<path d="M45.6627 9.02024V29.5485C45.6627 30.7474 45.9759 31.0151 47.0941 31.3264V32.4379H37.7069V31.3264C38.8251 31.0587 39.1383 30.7474 39.1383 29.5922V11.9096C39.1383 10.7544 38.869 10.3995 37.7069 10.1318V9.02024H45.6627ZM42.3551 0C44.2782 0 45.8852 1.60036 45.8852 3.50916C45.8852 5.41796 44.2753 7.01832 42.3551 7.01832C40.435 7.01832 38.8251 5.41796 38.8251 3.50916C38.8251 1.60036 40.435 0 42.3551 0Z" fill="black"/>
<path d="M69.8463 9.9543C70.7859 10.3093 71.2777 10.6206 72.349 9.82045L73.3764 10.3093L69.981 17.3742L68.775 16.8417C68.9536 16.1754 68.6404 15.5963 68.0608 15.0638C66.5856 13.6875 63.6351 13.0212 61.671 13.0212C58.9459 13.0212 56.3086 13.865 56.3964 15.509C56.4403 17.0192 58.0941 17.508 61.1792 17.8194C62.2066 17.9067 63.5472 18.0405 64.8439 18.1744C69.6707 18.5293 73.7394 20.4411 73.7833 25.2392C73.8272 31.1926 67.7945 33.0577 61.8056 33.0577C56.6217 33.0577 53.2234 31.4574 52.4184 31.146C51.7481 30.8783 51.1217 30.8783 50.7207 31.5447L49.5148 31.0122L52.7785 23.7698L53.8966 24.2586C53.3171 25.3702 54.7016 26.4788 55.9983 26.9676C58.3224 27.8551 60.3772 28.2567 61.9871 28.2567C63.8195 28.2567 67.2617 27.9017 67.171 25.635C67.1271 24.3023 65.7865 23.5923 62.3003 23.4148C60.825 23.3246 59.3966 23.1937 58.5917 23.1035C54.4791 22.7485 50.188 21.1045 50.1441 16.2161C50.1002 12.8844 51.9765 10.7079 54.6577 9.5964C56.7125 8.70893 59.3498 8.39758 62.1657 8.39758C65.1601 8.44123 67.7066 9.10756 69.8522 9.95139L69.8463 9.9543Z" fill="black"/>
<path d="M77.9134 12.3082C77.9134 11.1094 77.287 10.1317 75.7678 10.1317V9.02021C79.8365 7.6439 82.2045 3.95433 83.188 1.33264H84.3501V9.02021H90.7428C91.3224 9.02021 92.5313 9.06385 92.5313 7.90868H93.6055V15.6399H92.5313C92.5313 14.3072 91.3692 14.1297 90.7428 14.1297H84.3501V23.505C84.3501 26.5253 86.3171 27.503 88.328 27.4157C90.0257 27.3284 92.4844 26.2605 91.9927 24.439L91.8141 23.8629L92.9323 23.5079L95.4789 32.1266L94.4046 32.4379C94.1353 31.9491 93.465 31.5941 92.9294 31.8589C91.7234 32.3914 89.9788 32.9267 88.3719 32.9704C86.2263 33.014 84.1715 32.659 82.6523 32.0364C79.7457 30.8812 77.9134 28.1693 77.9134 24.1277V12.3082Z" fill="black"/>
<path d="M122.783 32.4349H115.005V30.3923C113.486 31.8588 110.58 32.9703 107.363 32.9703C100.347 32.9703 94.8934 28.3933 94.8934 20.6621C94.8934 12.9309 100.973 8.48767 107.72 8.48767C110.937 8.48767 113.486 9.55555 115.184 10.9319V9.02016H122.783V10.1317C121.621 10.3994 121.308 10.7544 121.308 11.9095V29.5921C121.308 30.7473 121.621 31.0586 122.783 31.3263V32.4379V32.4349ZM115.005 19.8153C114.962 15.861 111.742 13.3731 108.39 13.3295C103.964 13.2422 101.017 16.44 101.017 20.6621C101.017 24.8841 103.833 28.1256 108.259 28.0383C111.61 27.9947 115.008 25.5068 115.008 21.5059V19.8183L115.005 19.8153Z" fill="black"/>
<path d="M136.909 32.4349H127.612V31.3234C128.731 31.0557 129.044 30.7444 129.044 29.5892V11.9066C129.044 10.7514 128.731 10.3965 127.612 10.1288V9.01724H135.478V11.1064C137.445 9.46243 140.348 8.57495 142.541 8.57495C149.87 8.6186 152.507 12.3955 152.507 17.505V29.5455C152.507 30.7444 152.864 31.0121 153.983 31.3234V32.4349H144.642V31.3234C145.76 31.0557 146.074 30.7444 146.074 29.5892V18.1248C146.074 15.0579 144.42 13.4139 141.156 13.4604C138.118 13.5041 135.48 15.8144 135.48 19.1926V29.5455C135.48 30.7444 135.794 31.0121 136.912 31.3234V32.4349H136.909Z" fill="black"/>
<path d="M165.12 9.02024V29.5485C165.12 30.7474 165.433 31.0151 166.551 31.3264V32.4379H157.164V31.3264C158.282 31.0587 158.596 30.7474 158.596 29.5922V11.9096C158.596 10.7544 158.326 10.3995 157.164 10.1318V9.02024H165.12ZM161.813 0C163.736 0 165.343 1.60036 165.343 3.50916C165.343 5.41796 163.733 7.01832 161.813 7.01832C159.892 7.01832 158.282 5.41796 158.282 3.50916C158.282 1.60036 159.892 0 161.813 0Z" fill="black"/>
<path d="M188.405 11.9096C188.405 10.7108 188.048 10.4431 186.93 10.1318V9.02026H196.27V10.1318C195.152 10.3995 194.839 10.7079 194.839 11.866V29.5486C194.839 30.7474 195.108 31.0587 196.27 31.3264V32.438H188.402V30.3051C186.705 32.1703 183.485 32.9704 181.342 32.9704C174.013 32.9268 171.331 29.0161 171.331 23.9066V11.9096C171.331 10.7108 171.018 10.4431 169.9 10.1318V9.02026H179.24V10.1318C178.122 10.3995 177.809 10.7079 177.809 11.866V23.2839C177.809 26.3508 179.463 27.9948 182.68 27.9482C185.674 27.9046 188.399 25.6815 188.399 22.3498V11.9096H188.405Z" fill="black"/>
<path d="M208.339 29.5485C208.339 30.7473 208.652 31.015 209.77 31.3263V32.4378H200.474V31.3263C201.592 31.0586 201.905 30.7473 201.905 29.5921V11.9095C201.905 10.7544 201.592 10.3994 200.474 10.1317V9.02014H208.339V10.8416C210.036 9.33149 212.273 8.57495 214.371 8.57495C217.948 8.57495 220.182 9.68648 221.478 11.5516C223.355 9.50898 226.575 8.57495 228.986 8.57495C235.423 8.6186 237.569 12.1307 237.569 17.505V29.5455C237.569 30.7444 237.882 31.0121 239 31.3234V32.4349H229.704V31.3234C230.822 31.0557 231.135 30.7444 231.135 29.5892V18.1248C231.135 15.3692 229.973 13.4139 227.336 13.4604C224.476 13.5041 222.957 15.5933 222.957 18.7474V29.5455C222.957 30.7444 223.27 31.0121 224.388 31.3234V32.4349H215.092V31.3234C216.21 31.0557 216.523 30.7444 216.523 29.5892V18.1248C216.523 15.3692 215.361 13.4139 212.724 13.4604C209.685 13.5041 208.345 15.8144 208.345 19.1926V29.5455L208.339 29.5485Z" fill="black"/>
</svg>
